<svg width="195" height="373" viewBox="0 0 195 373" fill="none" xmlns="http://www.w3.org/2000/svg">
<mask id="mask0_1_624" style="mask-type:luminance" maskUnits="userSpaceOnUse" x="0" y="239" width="195" height="134">
<path d="M195 239.075H0V373H195V239.075Z" fill="white"/>
</mask>
<g mask="url(#mask0_1_624)">
<path d="M189.567 313.178L63.3292 252.639L26.3305 330.248L26.3653 330.265C25.6279 331.591 25.7485 333.269 26.9633 335.044L66.3318 392.613C68.8799 396.339 75.1502 399.031 80.3352 398.626L147.208 393.412C149.884 393.203 151.727 392.204 152.556 390.78L152.568 390.787L189.567 313.178Z" fill="url(#paint0_linear_1_624)"/>
<path d="M103.315 315.038L63.9516 257.468C61.4034 253.742 63.542 250.394 68.727 249.99L135.6 244.776C140.782 244.376 147.06 247.063 149.604 250.789L188.972 308.358C191.52 312.084 189.382 315.433 184.197 315.836L117.322 321.051C112.132 321.455 105.868 318.765 103.315 315.038Z" fill="url(#paint1_linear_1_624)"/>
<path d="M185.31 313.491L118.437 318.705C113.255 319.105 106.976 316.416 104.434 312.692L65.0636 255.123C64.3483 254.164 63.9898 252.985 64.0501 251.79C62.6061 253.199 62.4337 255.259 63.9505 257.47L103.319 315.039C105.867 318.765 112.135 321.456 117.321 321.052L184.197 315.837C187.738 315.561 189.808 313.898 189.986 311.694C188.682 312.818 187.029 313.454 185.31 313.491Z" fill="url(#paint2_linear_1_624)"/>
</g>
<path d="M99.8424 114.231L22.4667 147.114L42.565 194.688L42.5849 194.679C42.782 195.153 43.1121 195.559 43.535 195.849C43.958 196.138 44.4557 196.298 44.9677 196.31L86.4549 201.446C89.1385 201.778 92.8407 200.019 94.7262 197.52L118.99 165.267C119.412 164.809 119.719 164.255 119.883 163.653C120.048 163.051 120.066 162.418 119.936 161.808H119.944L99.8424 114.231Z" fill="#F9CF2D"/>
<path d="M66.363 153.893L24.8758 148.758C22.1901 148.426 21.5394 146.13 23.4218 143.629L47.6847 111.376C49.5672 108.878 53.2654 107.119 55.956 107.45L97.4412 112.587C100.127 112.918 100.778 115.215 98.8972 117.716L74.6343 149.967C72.7518 152.467 69.0536 154.225 66.363 153.893Z" fill="#FFE06A"/>
<path d="M98.2888 116.277L74.0259 148.529C72.1435 151.028 68.4453 152.789 65.7546 152.455L24.2674 147.321C23.5528 147.262 22.8813 146.954 22.369 146.45C22.4268 147.664 23.2828 148.56 24.8763 148.757L66.3635 153.892C69.0492 154.224 72.7504 152.466 74.6348 149.966L98.8987 117.715C100.183 116.006 100.262 114.41 99.3432 113.454C99.3284 114.489 98.9557 115.487 98.2888 116.277Z" fill="white"/>
<path d="M149.275 31.6L110.136 0.538574L91.1546 24.5988L91.1645 24.6067C90.9741 24.8447 90.8568 25.1331 90.8269 25.4367C90.797 25.7403 90.8558 26.0461 90.9961 26.3168L100.152 49.4605C100.585 50.3013 101.208 51.0286 101.972 51.584C102.736 52.1395 103.619 52.5076 104.55 52.6588L128.221 56.1459C128.58 56.236 128.955 56.2382 129.315 56.1525C129.675 56.0667 130.009 55.8955 130.289 55.6532L149.275 31.6Z" fill="url(#paint3_linear_1_624)"/>
<path d="M119.128 25.4113L109.972 2.26762C109.374 0.76842 110.386 -0.231046 112.221 0.0448068L135.894 3.53194C136.825 3.68313 137.708 4.05125 138.471 4.60672C139.234 5.16218 139.857 5.88951 140.29 6.73025L149.447 29.8739C150.045 31.3731 149.032 32.3666 147.198 32.0967L123.524 28.6156C122.592 28.4637 121.709 28.0947 120.946 27.5382C120.182 26.9817 119.56 26.2531 119.128 25.4113Z" fill="url(#paint4_linear_1_624)"/>
<path d="M147.77 31.3722L124.1 27.8841C123.169 27.7324 122.286 27.3641 121.523 26.8087C120.76 26.2533 120.137 25.5262 119.704 24.6858L110.547 1.53915C110.373 1.14933 110.341 0.710863 110.456 0.299805C110.141 0.504291 109.915 0.821746 109.826 1.18732C109.736 1.55289 109.789 1.93899 109.974 2.26676L119.13 25.4104C119.562 26.2512 120.185 26.9785 120.949 27.5339C121.712 28.0894 122.595 28.4575 123.526 28.6087L147.199 32.0958C148.451 32.2817 149.304 31.867 149.539 31.1134C148.997 31.4036 148.371 31.4951 147.77 31.3722Z" fill="white"/>
<defs>
<linearGradient id="paint0_linear_1_624" x1="286.617" y1="288.124" x2="480.226" y2="288.124" gradientUnits="userSpaceOnUse">
<stop stop-color="#5E98F7"/>
<stop offset="1" stop-color="#4670BA"/>
</linearGradient>
<linearGradient id="paint1_linear_1_624" x1="91.8717" y1="254.052" x2="298.969" y2="452.874" gradientUnits="userSpaceOnUse">
<stop stop-color="#93BBFE"/>
<stop offset="1" stop-color="#4670BA"/>
</linearGradient>
<linearGradient id="paint2_linear_1_624" x1="126.437" y1="251.79" x2="126.437" y2="321.092" gradientUnits="userSpaceOnUse">
<stop stop-color="#5E98F7"/>
<stop offset="1" stop-color="#4670BA"/>
</linearGradient>
<linearGradient id="paint3_linear_1_624" x1="128.173" y1="39.3452" x2="178.094" y2="39.3452" gradientUnits="userSpaceOnUse">
<stop stop-color="#5E98F7"/>
<stop offset="1" stop-color="#4670BA"/>
</linearGradient>
<linearGradient id="paint4_linear_1_624" x1="131.103" y1="-16.5219" x2="168.755" y2="70.8117" gradientUnits="userSpaceOnUse">
<stop stop-color="#91BBFF"/>
<stop offset="1" stop-color="#4670BA"/>
</linearGradient>
</defs>
</svg>
