<svg width="393" height="636" viewBox="0 0 393 636" fill="none" xmlns="http://www.w3.org/2000/svg">
<g opacity="0.71">
<path d="M330.305 134.659L468 71.9874L330.305 -0.000732422L192.61 71.9874L330.305 134.659Z" fill="#F2F6FE"/>
<path d="M192.61 71.9882V427.472L330.305 489.904V134.658L192.61 71.9882Z" fill="url(#paint0_linear_1_337)"/>
<path d="M468 71.9882L330.305 134.659V489.901L468 409.631" fill="url(#paint1_linear_1_337)"/>
<path d="M275.391 218.088L137.695 280.759V636.001L275.391 555.731" fill="url(#paint2_linear_1_337)"/>
<path d="M137.695 280.758L275.391 218.087L137.695 146.099L0.00289917 218.087L137.695 280.758Z" fill="#F2F6FE"/>
<path d="M-4.57764e-05 218.087V573.571L137.695 636.003V280.758L-4.57764e-05 218.087Z" fill="url(#paint3_linear_1_337)"/>
<path d="M275.391 218.087L137.695 280.758V636L275.391 555.73" fill="url(#paint4_linear_1_337)"/>
</g>
<defs>
<linearGradient id="paint0_linear_1_337" x1="268.204" y1="547.158" x2="156.896" y2="70.7975" gradientUnits="userSpaceOnUse">
<stop stop-color="white" stop-opacity="0"/>
<stop offset="1" stop-color="#E0E7FD"/>
</linearGradient>
<linearGradient id="paint1_linear_1_337" x1="380.564" y1="287.631" x2="562.528" y2="271.179" gradientUnits="userSpaceOnUse">
<stop stop-color="white"/>
<stop offset="1" stop-color="#E0E7FD"/>
</linearGradient>
<linearGradient id="paint2_linear_1_337" x1="187.954" y1="433.731" x2="369.918" y2="417.279" gradientUnits="userSpaceOnUse">
<stop stop-color="white"/>
<stop offset="1" stop-color="#E0E7FD"/>
</linearGradient>
<linearGradient id="paint3_linear_1_337" x1="75.5946" y1="693.257" x2="-35.7131" y2="216.897" gradientUnits="userSpaceOnUse">
<stop stop-color="white" stop-opacity="0"/>
<stop offset="1" stop-color="#E0E7FD"/>
</linearGradient>
<linearGradient id="paint4_linear_1_337" x1="187.954" y1="433.73" x2="369.918" y2="417.278" gradientUnits="userSpaceOnUse">
<stop stop-color="white" stop-opacity="0"/>
<stop offset="1" stop-color="#E0E7FD"/>
</linearGradient>
</defs>
</svg>
