<svg width="72" height="91" viewBox="0 0 72 91" fill="none" xmlns="http://www.w3.org/2000/svg">
<g clip-path="url(#clip0_1_432)">
<path fill-rule="evenodd" clip-rule="evenodd" d="M65.458 36.6044V42.6609L45.2427 49.0482V42.9881L65.458 36.6044Z" fill="#D3E5FB"/>
<path fill-rule="evenodd" clip-rule="evenodd" d="M45.7035 43.3347V48.4076L65.0022 42.3185V37.2413L45.7035 43.3347ZM45.2456 49.5147C45.1471 49.5156 45.0511 49.4836 44.9726 49.4237C44.9105 49.3836 44.8597 49.328 44.825 49.2624C44.7904 49.1968 44.7731 49.1232 44.7748 49.0489V42.9923C44.7744 42.8918 44.806 42.7937 44.8651 42.7127C44.9242 42.6317 45.0076 42.5719 45.103 42.5423L65.3305 36.1586C65.3981 36.1374 65.4698 36.1324 65.5397 36.1441C65.6097 36.1558 65.6759 36.1837 65.7332 36.2258C65.7926 36.2697 65.8413 36.3267 65.8756 36.3924C65.9098 36.4581 65.9288 36.5308 65.931 36.605V42.6615C65.9314 42.7621 65.8997 42.8602 65.8406 42.9412C65.7815 43.0222 65.6981 43.0819 65.6028 43.1115L45.3761 49.4952C45.3332 49.5099 45.288 49.5165 45.2427 49.5147H45.2456Z" fill="#345BE4"/>
<path fill-rule="evenodd" clip-rule="evenodd" d="M62.2762 52.9115V58.9688L54.0808 63.7355V57.6781L62.2762 52.9115Z" fill="#D3E5FB"/>
<path fill-rule="evenodd" clip-rule="evenodd" d="M54.5374 57.9496V62.9272L61.8155 58.7023V53.724L54.5374 57.9496ZM54.0788 64.2056C53.9958 64.2032 53.9145 64.1813 53.8416 64.1414C53.771 64.1001 53.7124 64.0408 53.6715 63.9696C53.6306 63.8984 53.609 63.8177 53.6086 63.7355V57.6788C53.6085 57.5969 53.63 57.5165 53.671 57.4458C53.7119 57.3751 53.7708 57.3167 53.8416 57.2766L62.0484 52.5056C62.1186 52.4666 62.1975 52.4462 62.2777 52.4462C62.3579 52.4462 62.4367 52.4666 62.507 52.5056C62.5786 52.5462 62.6383 52.6052 62.68 52.6766C62.7216 52.748 62.7437 52.8293 62.7442 52.9122V58.9694C62.7443 59.0524 62.7223 59.1339 62.6806 59.2054C62.6389 59.2769 62.5789 59.3358 62.507 59.376L54.316 64.1428C54.2429 64.1822 54.1616 64.2036 54.0788 64.2056Z" fill="#345BE4"/>
<path fill-rule="evenodd" clip-rule="evenodd" d="M54.078 57.6781V63.7353L37.036 53.8113V47.754L54.078 57.6781Z" fill="#345BE4"/>
<path fill-rule="evenodd" clip-rule="evenodd" d="M37.4981 53.5441L53.6079 62.9258V57.9481L37.4981 48.5658V53.5441ZM54.078 64.2041C53.995 64.2018 53.9137 64.1797 53.8408 64.1397L36.8023 54.2164C36.7322 54.1752 36.6745 54.1159 36.6349 54.0445C36.5953 53.9731 36.5754 53.8923 36.5773 53.8105V47.7533C36.5753 47.6715 36.5952 47.5909 36.6348 47.5195C36.6743 47.4481 36.7322 47.3886 36.8023 47.3474C36.8739 47.3061 36.9549 47.2844 37.0373 47.2844C37.1198 47.2844 37.2008 47.3061 37.2724 47.3474L54.3145 57.2751C54.3838 57.3159 54.441 57.3748 54.48 57.4456C54.5189 57.5164 54.5382 57.5964 54.5359 57.6773V63.7338C54.5378 63.8152 54.5182 63.8957 54.4793 63.9669C54.4405 64.0382 54.3836 64.0978 54.3145 64.1397C54.2418 64.1799 54.1608 64.2015 54.078 64.2041Z" fill="#345BE4"/>
<path fill-rule="evenodd" clip-rule="evenodd" d="M37.0357 47.7542V53.8114L26.0548 65.575V59.5185L37.0357 47.7542Z" fill="#D3E5FB"/>
<path fill-rule="evenodd" clip-rule="evenodd" d="M26.513 59.7019V64.3963L36.5773 53.6286V48.9341L26.513 59.7019ZM26.0544 66.0451C25.9949 66.044 25.9361 66.032 25.881 66.0097C25.7934 65.9763 25.7179 65.9172 25.6643 65.8399C25.6107 65.7625 25.5816 65.6706 25.5807 65.5763V59.5197C25.5831 59.3996 25.6296 59.2846 25.7111 59.1969L36.6955 47.4377C36.7593 47.3679 36.8427 47.3195 36.9345 47.2989C37.0263 47.2782 37.1222 47.2863 37.2094 47.3222C37.2952 47.3564 37.3687 47.4163 37.4199 47.4937C37.4711 47.5712 37.4977 47.6625 37.496 47.7556V53.8128C37.4986 53.9316 37.4563 54.047 37.3777 54.1357L26.3934 65.8949C26.3046 65.9878 26.1824 66.0418 26.0544 66.0451Z" fill="#345BE4"/>
<path fill-rule="evenodd" clip-rule="evenodd" d="M26.0551 59.5183V65.5756L6.20459 31.0808V25.0242L26.0551 59.5183Z" fill="#345BE4"/>
<path fill-rule="evenodd" clip-rule="evenodd" d="M6.66538 30.9551L25.5807 63.8329V59.6397L6.66538 26.7663V30.9595V30.9551ZM26.0544 66.0422C25.9716 66.0421 25.8903 66.0204 25.8184 65.9793C25.7464 65.9382 25.6863 65.879 25.6437 65.8075L5.80039 31.3134C5.75847 31.242 5.73529 31.1609 5.73303 31.0779V25.0207C5.73442 24.9183 5.76869 24.8191 5.8307 24.7379C5.89271 24.6568 5.97912 24.5982 6.077 24.5707C6.17546 24.5421 6.28061 24.548 6.37534 24.5874C6.47008 24.6267 6.54882 24.6972 6.59872 24.7874L26.4492 59.2815C26.4969 59.3503 26.5206 59.433 26.5166 59.5168V65.5735C26.5153 65.6763 26.4811 65.7759 26.4191 65.8576C26.3572 65.9393 26.2707 65.9987 26.1726 66.027C26.1344 66.0371 26.0953 66.0432 26.0558 66.0451L26.0544 66.0422Z" fill="#345BE4"/>
<path fill-rule="evenodd" clip-rule="evenodd" d="M6.2074 25.0242L65.4579 36.605L45.2312 42.9924L62.2733 52.9121L54.078 57.6787L37.0359 47.7547L26.0551 59.519L6.2074 25.0242Z" fill="white"/>
<path fill-rule="evenodd" clip-rule="evenodd" d="M7.11139 25.6806L26.1457 58.7367L36.6951 47.4353C36.7675 47.3574 36.8638 47.3064 36.9685 47.2906C37.0732 47.2747 37.1801 47.2949 37.272 47.348L54.0768 57.1399L61.3398 52.9106L45.0051 43.3931C44.9286 43.3463 44.8665 43.2792 44.8253 43.1993C44.7841 43.1193 44.7654 43.0294 44.7715 42.9395C44.7809 42.8479 44.8172 42.7611 44.8756 42.6903C44.934 42.6194 45.012 42.5677 45.0997 42.5416L63.5686 36.7118L7.11139 25.6806ZM26.0539 59.9862H25.9988C25.926 59.9762 25.8562 59.9503 25.7943 59.9104C25.7325 59.8705 25.68 59.8174 25.6405 59.755L5.79712 25.261C5.75323 25.183 5.73218 25.0942 5.73636 25.0048C5.74055 24.9153 5.76982 24.8288 5.82078 24.7554C5.87081 24.6828 5.94074 24.6263 6.02207 24.5931C6.10339 24.5599 6.19258 24.5513 6.27869 24.5684L65.5436 36.1485C65.6456 36.1672 65.7385 36.2199 65.8071 36.2983C65.8758 36.3766 65.9163 36.476 65.9222 36.5804C65.9281 36.6848 65.899 36.7881 65.8395 36.8738C65.7801 36.9595 65.6937 37.0225 65.5944 37.0527L46.3788 43.1194L62.5029 52.5083C62.5747 52.5486 62.6345 52.6075 62.6761 52.679C62.7178 52.7504 62.7397 52.8317 62.7397 52.9145C62.7397 52.9974 62.7178 53.0787 62.6761 53.1501C62.6345 53.2215 62.5747 53.2804 62.5029 53.3208L54.3119 58.0874C54.2396 58.1288 54.1578 58.1505 54.0747 58.1505C53.9915 58.1505 53.9098 58.1288 53.8375 58.0874L37.1272 48.3469L26.3915 59.8396C26.3016 59.9295 26.1813 59.9819 26.0547 59.9862H26.0539Z" fill="#345BE4"/>
</g>
<defs>
<clipPath id="clip0_1_432">
<rect width="71.6625" height="91" fill="white"/>
</clipPath>
</defs>
</svg>
