<svg width="60" height="91" viewBox="0 0 60 91" fill="none" xmlns="http://www.w3.org/2000/svg">
<g clip-path="url(#clip0_1_349)">
<path fill-rule="evenodd" clip-rule="evenodd" d="M44.8383 61.2055L34.8905 55.4594V17.8396L44.8383 23.5856V61.2055Z" fill="#345BE4"/>
<path fill-rule="evenodd" clip-rule="evenodd" d="M35.3916 55.1728L44.3496 60.3461V23.8739L35.3916 18.7006V55.1728ZM44.8384 61.7031C44.755 61.7029 44.6733 61.6796 44.6022 61.6359L34.6386 55.8893C34.5648 55.8448 34.5041 55.7816 34.4626 55.7062C34.4212 55.6307 34.4004 55.5456 34.4024 55.4595V17.8405C34.3998 17.7538 34.4204 17.6679 34.4618 17.5917C34.5033 17.5156 34.5643 17.4518 34.6386 17.4071C34.7149 17.3635 34.8012 17.3406 34.889 17.3406C34.9769 17.3406 35.0633 17.3635 35.1396 17.4071L45.091 23.1531C45.1662 23.1969 45.2287 23.2596 45.2723 23.335C45.3158 23.4103 45.3389 23.4957 45.3394 23.5828V61.2026C45.3391 61.2902 45.3161 61.3761 45.2725 61.4521C45.229 61.5281 45.1664 61.5914 45.091 61.6359C45.0131 61.6774 44.9266 61.7009 44.8384 61.7031Z" fill="#345BE4"/>
<path fill-rule="evenodd" clip-rule="evenodd" d="M44.8383 23.5863L34.8905 17.8404L44.9091 12.0518L54.8569 17.7977L44.8383 23.5863Z" fill="#D3E5FB"/>
<path fill-rule="evenodd" clip-rule="evenodd" d="M35.8803 17.8397L44.8383 23.013L53.8757 17.7977L44.9091 12.6245L35.8803 17.8397ZM44.8383 24.0825C44.7546 24.0843 44.6724 24.0609 44.6022 24.0154L34.6385 18.2687C34.5654 18.2234 34.505 18.1601 34.4631 18.0849C34.4212 18.0097 34.3993 17.925 34.3993 17.8389C34.3993 17.7528 34.4212 17.6682 34.4631 17.593C34.505 17.5178 34.5654 17.4545 34.6385 17.4092L44.67 11.6206C44.7442 11.5771 44.8285 11.5542 44.9144 11.5542C45.0004 11.5542 45.0847 11.5771 45.1588 11.6206L55.1067 17.3673C55.1835 17.4098 55.2475 17.4721 55.292 17.5476C55.3365 17.6232 55.36 17.7093 55.36 17.797C55.36 17.8848 55.3365 17.9709 55.292 18.0464C55.2475 18.122 55.1835 18.1843 55.1067 18.2267L45.0918 24.0147C45.0146 24.0589 44.9273 24.0818 44.8383 24.0825Z" fill="#345BE4"/>
<path fill-rule="evenodd" clip-rule="evenodd" d="M34.8189 66.9941L24.8718 61.2474V32.5549L34.8189 38.301V66.9941Z" fill="#345BE4"/>
<path fill-rule="evenodd" clip-rule="evenodd" d="M25.3599 60.9607L34.318 66.1375V38.5862L25.3599 33.4137V60.9607ZM34.8183 67.491C34.7312 67.4889 34.646 67.4656 34.5699 67.4231L24.6184 61.6772C24.5428 61.633 24.48 61.5697 24.4364 61.4936C24.3928 61.4176 24.37 61.3314 24.3701 61.2438V32.5514C24.3706 32.4648 24.3938 32.3799 24.4374 32.3052C24.481 32.2304 24.5434 32.1683 24.6184 32.1252C24.6918 32.0801 24.7763 32.0563 24.8625 32.0563C24.9486 32.0563 25.0331 32.0801 25.1065 32.1252L35.0703 37.872C35.144 37.9153 35.2047 37.9776 35.2461 38.0524C35.2875 38.1273 35.3081 38.2118 35.3056 38.2973V66.9905C35.3083 67.0771 35.2879 67.1629 35.2466 67.239C35.2052 67.3152 35.1444 67.3789 35.0703 67.4238C34.9923 67.4642 34.9061 67.4859 34.8183 67.4874V67.491Z" fill="#345BE4"/>
<path fill-rule="evenodd" clip-rule="evenodd" d="M34.8189 38.301L24.8718 32.5549L34.8911 26.7706L44.8382 32.5167L34.8189 38.301Z" fill="#D3E5FB"/>
<path fill-rule="evenodd" clip-rule="evenodd" d="M25.8654 32.5549L34.8183 37.7318L43.8434 32.5166L34.8905 27.3434L25.8654 32.5549ZM34.8183 38.7985C34.731 38.7985 34.6453 38.7753 34.5699 38.7313L24.6184 32.9847C24.5432 32.9409 24.4807 32.8782 24.4371 32.8028C24.3936 32.7274 24.3705 32.642 24.3701 32.5549C24.3706 32.4683 24.3938 32.3835 24.4374 32.3087C24.481 32.234 24.5434 32.1719 24.6184 32.1288L34.6378 26.3409C34.7141 26.2973 34.8004 26.2744 34.8883 26.2744C34.9762 26.2744 35.0625 26.2973 35.1389 26.3409L45.091 32.0869C45.1665 32.1299 45.2293 32.192 45.273 32.2671C45.3167 32.3422 45.3397 32.4276 45.3397 32.5145C45.3397 32.6014 45.3167 32.6867 45.273 32.7618C45.2293 32.8369 45.1665 32.8991 45.091 32.942L35.0717 38.7306C34.9944 38.7745 34.9072 38.7979 34.8183 38.7985Z" fill="#345BE4"/>
<path fill-rule="evenodd" clip-rule="evenodd" d="M34.8189 66.9932V38.3002L44.8382 32.5159V61.209L34.8189 66.9932Z" fill="white"/>
<path fill-rule="evenodd" clip-rule="evenodd" d="M35.3078 38.5876V66.1346L44.3495 60.9194V33.3725L35.3078 38.5876ZM34.819 67.4916C34.7319 67.4895 34.6467 67.4662 34.5706 67.4238C34.4938 67.3805 34.4299 67.3175 34.3855 67.2413C34.3411 67.1652 34.3177 67.0786 34.3179 66.9904V38.2973C34.3179 38.2102 34.3414 38.1247 34.3859 38.0499C34.4304 37.975 34.4942 37.9135 34.5706 37.8719L44.603 32.0833C44.6771 32.0399 44.7615 32.017 44.8474 32.017C44.9333 32.017 45.0176 32.0399 45.0917 32.0833C45.1677 32.1271 45.2307 32.1904 45.2743 32.2665C45.3179 32.3426 45.3407 32.4288 45.3402 32.5166V61.2097C45.339 61.2961 45.3155 61.3806 45.2719 61.4552C45.2284 61.5297 45.1663 61.5917 45.0917 61.6351L35.0724 67.4238C34.9944 67.4658 34.9076 67.4891 34.819 67.4916Z" fill="#345BE4"/>
<path fill-rule="evenodd" clip-rule="evenodd" d="M44.8383 61.2098V23.5856L54.8569 17.797V55.4168L44.8383 61.2098Z" fill="white"/>
<path fill-rule="evenodd" clip-rule="evenodd" d="M45.3393 23.8737V60.3518L54.3644 55.1322V18.66L45.3393 23.8752V23.8737ZM44.8383 61.7037C44.7546 61.7055 44.6724 61.6821 44.6022 61.6366C44.5247 61.5961 44.46 61.5349 44.4154 61.4598C44.3708 61.3846 44.3479 61.2986 44.3495 61.2112V23.5848C44.3466 23.4961 44.3687 23.4084 44.4135 23.3318C44.4582 23.2551 44.5235 23.1926 44.6022 23.1515L54.6172 17.3637C54.692 17.3223 54.7761 17.3005 54.8616 17.3005C54.9471 17.3005 55.0312 17.3223 55.106 17.3637C55.1824 17.4066 55.2459 17.4689 55.2903 17.5444C55.3347 17.6199 55.3583 17.7058 55.3587 17.7934V55.4132C55.3589 55.5014 55.3355 55.588 55.2911 55.6642C55.2467 55.7404 55.1828 55.8033 55.106 55.8465L45.091 61.6344C45.014 61.6785 44.927 61.7028 44.8383 61.7037Z" fill="#345BE4"/>
<path fill-rule="evenodd" clip-rule="evenodd" d="M34.8189 47.2313L24.8718 41.4852L14.8525 47.2695L24.7996 53.0163L34.8189 47.2313Z" fill="#D3E5FB"/>
<path fill-rule="evenodd" clip-rule="evenodd" d="M15.8329 47.2695L24.7989 52.4472L33.8291 47.232L24.8711 42.0551L15.8329 47.2695ZM24.7989 53.5131C24.7112 53.5164 24.6245 53.493 24.5505 53.446L14.6026 47.6992C14.5262 47.6571 14.4624 47.5952 14.418 47.52C14.3736 47.4448 14.3502 47.3591 14.3502 47.2717C14.3502 47.1844 14.3736 47.0987 14.418 47.0235C14.4624 46.9483 14.5262 46.8863 14.6026 46.8441L24.6176 41.0562C24.6916 41.0127 24.7758 40.9897 24.8617 40.9897C24.9475 40.9897 25.0318 41.0127 25.1057 41.0562L35.0695 46.8023C35.1418 46.8482 35.2013 46.9118 35.2426 46.9869C35.2838 47.062 35.3054 47.1463 35.3054 47.232C35.3054 47.3177 35.2838 47.402 35.2426 47.4771C35.2013 47.5523 35.1418 47.6157 35.0695 47.6617L25.0378 53.4467C24.9662 53.4912 24.8833 53.5143 24.7989 53.5131Z" fill="#345BE4"/>
<path fill-rule="evenodd" clip-rule="evenodd" d="M24.7996 53.0155L14.8525 47.2695V67.036L24.7996 72.782V53.0155Z" fill="#345BE4"/>
<path fill-rule="evenodd" clip-rule="evenodd" d="M15.3448 66.75L24.2978 71.9232V53.3029L15.3448 48.1297V66.75ZM24.7996 73.2752C24.7119 73.2789 24.6252 73.2555 24.5512 73.2081L14.6033 67.4664C14.5266 67.4231 14.4627 67.3601 14.4183 67.284C14.3739 67.2078 14.3506 67.1212 14.3506 67.0331V47.2665C14.3513 47.1796 14.375 47.0944 14.4194 47.0196C14.4638 46.9449 14.5273 46.8833 14.6033 46.8412C14.6774 46.7977 14.7618 46.7748 14.8477 46.7748C14.9337 46.7748 15.018 46.7977 15.0921 46.8412L25.04 52.5879C25.1151 52.6312 25.1777 52.6931 25.222 52.7676C25.2662 52.8421 25.2906 52.9267 25.2927 53.0133V72.7791C25.2919 72.866 25.268 72.9511 25.2236 73.0258C25.1792 73.1005 25.1159 73.1622 25.04 73.2045C24.9683 73.2511 24.8852 73.2756 24.7996 73.2752Z" fill="#345BE4"/>
<path fill-rule="evenodd" clip-rule="evenodd" d="M34.8189 66.997V47.2349L24.7996 53.0191V72.7849L34.8189 66.997Z" fill="white"/>
<path fill-rule="evenodd" clip-rule="evenodd" d="M25.2928 53.3029V71.9232L34.3179 66.7073V48.087L25.2928 53.3029ZM24.7996 73.2752C24.7119 73.2788 24.6252 73.2555 24.5513 73.2081C24.4748 73.1665 24.4109 73.1049 24.3664 73.0301C24.322 72.9552 24.2984 72.8698 24.2985 72.7827V53.0169C24.2993 52.9289 24.323 52.8427 24.3673 52.7667C24.4116 52.6907 24.4751 52.6276 24.5513 52.5836L34.5699 46.7993C34.6462 46.7557 34.7325 46.7328 34.8203 46.7328C34.9082 46.7328 34.9946 46.7557 35.0709 46.7993C35.1452 46.8441 35.2061 46.9078 35.2476 46.984C35.2891 47.0601 35.3096 47.1459 35.307 47.2326V66.9948C35.3096 67.0815 35.2891 67.1672 35.2476 67.2434C35.2061 67.3195 35.1452 67.3833 35.0709 67.4281L25.0393 73.2124C24.9671 73.2559 24.8839 73.2777 24.7996 73.2752Z" fill="#345BE4"/>
<path fill-rule="evenodd" clip-rule="evenodd" d="M24.801 61.9472L14.8539 56.2012L4.82669 61.9855L14.7745 67.7358L24.801 61.9472Z" fill="#D3E5FB"/>
<path fill-rule="evenodd" clip-rule="evenodd" d="M5.81434 61.9847L14.7723 67.158L23.8105 61.9472L14.8525 56.7696L5.81434 61.9847ZM14.7723 68.2283C14.6874 68.2294 14.604 68.2061 14.532 68.1612L4.58405 62.4144C4.50704 62.3714 4.44297 62.3085 4.39853 62.2323C4.35408 62.1561 4.33089 62.0693 4.33137 61.9811C4.33351 61.8945 4.35789 61.8099 4.40214 61.7354C4.44639 61.6609 4.50902 61.599 4.58405 61.5557L14.6026 55.7671C14.6768 55.7237 14.7611 55.7008 14.847 55.7008C14.933 55.7008 15.0173 55.7237 15.0914 55.7671L25.0387 61.5138C25.1148 61.5578 25.1782 61.621 25.2225 61.697C25.2668 61.773 25.2906 61.8592 25.2913 61.9472C25.2894 62.0344 25.2652 62.1198 25.2209 62.195C25.1767 62.2702 25.114 62.3328 25.0387 62.3769L15.0193 68.1612C14.9447 68.2059 14.8592 68.2292 14.7723 68.2283Z" fill="#345BE4"/>
<path fill-rule="evenodd" clip-rule="evenodd" d="M14.7716 67.7359L4.82379 61.9856V72.8247L14.7716 78.5707V67.7359Z" fill="#345BE4"/>
<path fill-rule="evenodd" clip-rule="evenodd" d="M5.32554 72.5379L14.2785 77.7113V68.0176L5.32554 62.8443V72.5379ZM14.7716 79.0632C14.6872 79.0639 14.6042 79.0419 14.5312 78.9997L4.58334 73.2537C4.50745 73.2094 4.4443 73.1462 4.40002 73.0703C4.35574 72.9943 4.33187 72.9082 4.33066 72.8203V61.9863C4.3328 61.8996 4.35718 61.8151 4.40143 61.7406C4.44568 61.6661 4.50831 61.6042 4.58334 61.5609C4.65746 61.5174 4.74182 61.4945 4.82774 61.4945C4.91367 61.4945 4.99803 61.5174 5.07215 61.5609L15.0193 67.3076C15.0961 67.3508 15.1601 67.4138 15.2045 67.49C15.2489 67.5661 15.2722 67.6528 15.2719 67.741V78.5743C15.2716 78.6396 15.2583 78.7042 15.2329 78.7644C15.2075 78.8245 15.1704 78.879 15.1239 78.9248C15.0773 78.9706 15.0221 79.0067 14.9615 79.0311C14.901 79.0554 14.8362 79.0676 14.7709 79.0669L14.7716 79.0632Z" fill="#345BE4"/>
<path fill-rule="evenodd" clip-rule="evenodd" d="M24.7996 72.7821V61.9487L14.7723 67.7374V78.5707L24.7996 72.7821Z" fill="white"/>
<path fill-rule="evenodd" clip-rule="evenodd" d="M15.2734 68.0218V77.7111L24.2986 72.4959V62.8022L15.2734 68.0218ZM14.7723 79.0631C14.6879 79.0636 14.6049 79.0417 14.5319 78.9995C14.4565 78.9555 14.3938 78.8929 14.3495 78.8176C14.3053 78.7424 14.281 78.6571 14.2792 78.5698V67.7365C14.28 67.6485 14.3037 67.5623 14.348 67.4863C14.3923 67.4103 14.4557 67.3471 14.5319 67.3032L24.5512 61.5145C24.6252 61.4711 24.7095 61.4482 24.7953 61.4482C24.8811 61.4482 24.9653 61.4711 25.0393 61.5145C25.1155 61.5585 25.1789 61.6217 25.2232 61.6977C25.2675 61.7737 25.2912 61.8599 25.292 61.9479V72.7812C25.2912 72.8681 25.2673 72.9532 25.2229 73.028C25.1785 73.1027 25.1152 73.1643 25.0393 73.2066L15.02 78.9995C14.9442 79.0416 14.8589 79.0635 14.7723 79.0631Z" fill="#345BE4"/>
</g>
<defs>
<clipPath id="clip0_1_349">
<rect width="59.9268" height="91" fill="white"/>
</clipPath>
</defs>
</svg>
