<svg width="73" height="91" viewBox="0 0 73 91" fill="none" xmlns="http://www.w3.org/2000/svg">
<g clip-path="url(#clip0_1_413)">
<path fill-rule="evenodd" clip-rule="evenodd" d="M12.376 35.2965V89.6134L54.6176 65.4225V11.1049C40.5371 19.1649 26.4565 27.2288 12.376 35.2965Z" fill="white" stroke="#D3E5FB"/>
<path fill-rule="evenodd" clip-rule="evenodd" d="M19.5758 48.6395C19.4808 48.6637 19.3892 48.6991 19.3028 48.745C18.9864 48.9637 18.723 49.2491 18.5312 49.5809C18.3394 49.9127 18.2239 50.2826 18.1933 50.6639C18.1861 50.7687 18.2067 50.8735 18.2531 50.968C18.3463 50.936 18.4374 50.8983 18.5261 50.8553C18.8451 50.6385 19.111 50.3535 19.3044 50.0213C19.4977 49.6891 19.6136 49.3181 19.6435 48.9356C19.6563 48.8319 19.6328 48.7272 19.5766 48.6388L19.5758 48.6395ZM18.2399 52.5041C17.967 52.507 17.6984 52.4366 17.4625 52.3005C17.1887 52.1268 16.967 51.8832 16.8207 51.5953C16.6744 51.3073 16.6089 50.9856 16.6311 50.6639C16.6612 50.0103 16.8488 49.3734 17.1781 48.8066C17.5074 48.2398 17.969 47.7595 18.5239 47.406C18.7876 47.2116 19.1028 47.0979 19.4307 47.0789C19.7587 47.0599 20.0852 47.1363 20.3699 47.299C20.6546 47.4616 20.8852 47.7032 21.0334 47.9941C21.1815 48.285 21.2406 48.6125 21.2036 48.9364C21.1735 49.591 20.985 50.2287 20.6541 50.7958C20.3231 51.3629 19.8593 51.8426 19.302 52.1943C18.9817 52.3892 18.6156 52.4961 18.2399 52.5041Z" fill="#345BE4"/>
<path fill-rule="evenodd" clip-rule="evenodd" d="M19.3028 58.0175C18.9864 58.2363 18.7229 58.5219 18.5311 58.8538C18.3392 59.1857 18.2239 59.5557 18.1934 59.9371C18.1851 60.0417 18.2058 60.1466 18.2531 60.2405C18.3491 60.2161 18.441 60.1782 18.5261 60.1278C18.8449 59.9125 19.1108 59.6287 19.3042 59.2977C19.4976 58.9667 19.6136 58.5968 19.6435 58.2153C19.6435 58.0174 19.5971 57.9265 19.5767 57.912C19.4818 57.9364 19.3902 57.9717 19.3037 58.0175H19.3028ZM18.2392 61.7766C17.9664 61.7784 17.698 61.7078 17.4618 61.5723C17.188 61.3987 16.9663 61.1552 16.82 60.8674C16.6737 60.5796 16.6082 60.258 16.6304 59.9364C16.6613 59.283 16.8493 58.6464 17.1785 58.0796C17.5078 57.5129 17.9689 57.0326 18.5233 56.6785C18.7875 56.4839 19.1033 56.3702 19.4318 56.3515C19.7604 56.3328 20.0872 56.4099 20.3721 56.5733C20.657 56.7367 20.8875 56.9792 21.0352 57.271C21.1828 57.5628 21.2411 57.8911 21.203 58.2153C21.1715 58.8685 20.9824 59.5047 20.6515 60.0703C20.3205 60.6358 19.8575 61.1143 19.3014 61.4653C18.9813 61.6605 18.6148 61.7679 18.2392 61.7766Z" fill="#345BE4"/>
<path fill-rule="evenodd" clip-rule="evenodd" d="M19.5757 67.7669C19.4807 67.7907 19.389 67.8261 19.3027 67.8723C18.9864 68.091 18.7229 68.3765 18.531 68.7083C18.3392 69.0401 18.2238 69.41 18.1933 69.7913C18.186 69.8961 18.2066 70.0009 18.253 70.0953C18.349 70.0713 18.441 70.0335 18.526 69.9834C18.845 69.7665 19.111 69.4816 19.3043 69.1494C19.4977 68.8172 19.6136 68.4462 19.6435 68.0637C19.6548 67.9604 19.6314 67.8562 19.5766 67.7676L19.5757 67.7669ZM18.2399 71.6315C17.9669 71.6342 17.6983 71.5636 17.4625 71.4271C17.1887 71.2535 16.967 71.0101 16.8207 70.7223C16.6744 70.4344 16.6089 70.1129 16.631 69.7913C16.6619 69.1379 16.8499 68.5012 17.1792 67.9345C17.5084 67.3678 17.9695 66.8874 18.5239 66.5333C18.7876 66.339 19.1026 66.2254 19.4305 66.2063C19.7584 66.1873 20.0848 66.2637 20.3695 66.4262C20.6542 66.5887 20.8848 66.8302 21.033 67.121C21.1812 67.4118 21.2405 67.7393 21.2036 68.063C21.1735 68.7176 20.985 69.3554 20.6541 69.9225C20.3231 70.4895 19.8593 70.9692 19.302 71.321C18.9817 71.516 18.6149 71.6229 18.2392 71.6308L18.2399 71.6315Z" fill="#345BE4"/>
<path fill-rule="evenodd" clip-rule="evenodd" d="M24.795 47.7027C24.6572 47.7038 24.5217 47.6683 24.4024 47.5998C24.2831 47.5314 24.1844 47.4325 24.1166 47.3135C24.0141 47.1346 23.9867 46.9229 24.0404 46.7242C24.0941 46.5255 24.2245 46.3558 24.4035 46.2518L48.8811 32.2364C49.06 32.134 49.2727 32.1063 49.4722 32.1595C49.6717 32.2127 49.8418 32.3423 49.945 32.5198C50.0482 32.6974 50.0761 32.9083 50.0225 33.1063C49.9689 33.3042 49.8382 33.473 49.6592 33.5754L25.1816 47.5973C25.0638 47.6644 24.9308 47.7006 24.795 47.7027Z" fill="#345BE4"/>
<path fill-rule="evenodd" clip-rule="evenodd" d="M24.795 57.5495C24.6577 57.5519 24.5223 57.5177 24.4029 57.4503C24.2836 57.383 24.1847 57.285 24.1166 57.1667C24.0141 56.9879 23.9867 56.7762 24.0404 56.5774C24.0941 56.3787 24.2245 56.2091 24.4035 56.1051L48.8811 42.0838C49.0603 41.9886 49.2698 41.9665 49.4653 42.0221C49.6607 42.0777 49.8267 42.2066 49.9279 42.3815C50.0292 42.5565 50.0577 42.7637 50.0075 42.9592C49.9574 43.1547 49.8324 43.323 49.6592 43.4286L25.1816 57.4505C25.0633 57.5156 24.9303 57.5497 24.795 57.5495Z" fill="#345BE4"/>
<path fill-rule="evenodd" clip-rule="evenodd" d="M24.795 66.8294C24.6571 66.8305 24.5215 66.7949 24.4022 66.7263C24.2828 66.6577 24.1842 66.5586 24.1165 66.4394C24.0146 66.2604 23.9875 66.0489 24.0412 65.8504C24.0948 65.6518 24.2249 65.4821 24.4034 65.3778L41.8477 55.3864C42.0274 55.2856 42.24 55.2593 42.4392 55.3131C42.6384 55.3669 42.8083 55.4966 42.9116 55.6739C43.0149 55.8513 43.0434 56.0619 42.991 56.26C42.9387 56.4582 42.8095 56.6278 42.6317 56.732L25.1808 66.7239C25.0645 66.7938 24.9309 66.8303 24.795 66.8294Z" fill="#345BE4"/>
<path d="M55.5522 1.09996L59.5402 3.38432C59.6219 3.44098 59.6868 3.51828 59.7284 3.60816C59.77 3.69804 59.7867 3.79725 59.7768 3.89566V23.9626C59.7768 33.2706 45.9222 48.4113 45.3303 49.0533C45.2376 49.1547 45.1304 49.242 45.0122 49.3126C44.9166 49.3714 44.8084 49.4068 44.6963 49.4158C44.3127 49.439 38.3277 49.7539 34.1839 47.4175L30.1486 45.1064C28.9496 44.4916 27.9492 43.5543 27.262 42.4019C26.5748 41.2494 26.2285 39.9283 26.2626 38.5897V18.5221C26.2882 18.2477 26.376 17.9827 26.5194 17.7469C26.6629 17.511 26.8583 17.3103 27.091 17.16C32.6238 13.9945 37.7781 9.51022 40.551 5.46C40.8313 5.0505 41.2238 4.8295 41.5048 4.91472C44.2712 5.78861 49.4261 4.36875 55.0026 1.17436C55.0785 1.11019 55.1715 1.06913 55.2703 1.05632C55.3691 1.0435 55.4695 1.05939 55.5595 1.10207L55.5522 1.09996Z" fill="white"/>
<path d="M27.0851 17.1578C32.6179 13.9923 37.7722 9.50797 40.5451 5.45775C40.8254 5.04825 41.2179 4.82725 41.4989 4.91247C44.2653 5.78636 49.4202 4.3665 54.9974 1.17212C55.0732 1.108 55.166 1.06706 55.2648 1.05424C55.3635 1.04143 55.4639 1.05729 55.5538 1.09991L59.5416 3.38427C59.4524 3.34289 59.3531 3.32775 59.2554 3.34055C59.1578 3.35334 59.0659 3.39353 58.9906 3.45648C53.4119 6.65087 48.2621 8.07153 45.4906 7.19692C45.2089 7.10881 44.8179 7.33408 44.5369 7.74141C41.7647 11.7938 36.6089 16.2767 31.0769 19.4415C30.8437 19.5912 30.648 19.7917 30.5047 20.0277C30.3614 20.2638 30.2743 20.5291 30.2499 20.8036V40.8741C30.2164 42.2229 30.5687 43.5535 31.266 44.7119C31.9633 45.8703 32.9769 46.8091 34.1897 47.4196H34.1847L30.1493 45.1085C28.9503 44.4936 27.9499 43.5564 27.2627 42.4039C26.5755 41.2515 26.2292 39.9305 26.2633 38.5919V18.5192C26.2881 18.2455 26.375 17.981 26.5173 17.7452C26.6596 17.5095 26.8537 17.3087 27.0851 17.1578Z" fill="#4069FA"/>
<path d="M43.6633 49.7654C44.2734 49.7654 44.657 49.7437 44.7182 49.7394C44.8824 49.7273 45.0414 49.6766 45.1819 49.5914C45.3277 49.5053 45.4599 49.3985 45.5743 49.2743C46.172 48.6243 60.1111 33.3991 60.1089 23.9604V3.89567C60.1199 3.73975 60.0883 3.58375 60.0178 3.44401C59.9472 3.30427 59.8402 3.18593 59.7078 3.10124L55.7198 0.816789L55.7001 0.806739C55.5588 0.738781 55.4013 0.711407 55.2452 0.727746C55.0892 0.744085 54.9409 0.803433 54.8171 0.899132C49.3614 4.02563 44.2865 5.44913 41.6009 4.60052C41.3368 4.5617 41.067 4.60562 40.8292 4.72615C40.5914 4.84668 40.3975 5.03784 40.2745 5.27293C37.5263 9.28849 32.412 13.7345 26.9215 16.8755C26.6387 17.0542 26.4017 17.2957 26.2294 17.581C26.057 17.8663 25.954 18.1876 25.9285 18.5193V38.5905C25.8904 39.9831 26.2482 41.3584 26.9608 42.5589C27.6733 43.7594 28.712 44.7368 29.9581 45.3794L29.9806 45.3938L34.0166 47.7049C34.0325 47.7138 34.049 47.7216 34.066 47.7281C37.318 49.538 41.6781 49.7654 43.6633 49.7654ZM55.4068 1.39099L59.3772 3.666C59.4129 3.68695 59.4501 3.76492 59.4501 3.89276V23.9611C59.4501 33.1485 45.6763 48.1961 45.0888 48.8309C45.0187 48.9078 44.9377 48.9741 44.8485 49.028C44.7968 49.0606 44.7384 49.0811 44.6775 49.088C44.4242 49.1039 38.429 49.4339 34.3463 47.1329C34.332 47.1249 34.3173 47.118 34.3021 47.112L30.3308 44.8363L30.3075 44.8211C29.1592 44.2344 28.2009 43.3384 27.5425 42.2359C26.8841 41.1335 26.5523 39.8693 26.5852 38.5883V18.517C26.6104 18.2994 26.6829 18.0899 26.7978 17.9028C26.9127 17.7158 27.0672 17.5557 27.2506 17.4337C32.8184 14.2458 38.017 9.7233 40.8169 5.63263C41.0353 5.31558 41.3002 5.18772 41.3992 5.21589C44.2544 6.11722 49.5274 4.67352 55.1585 1.44591C55.2764 1.37369 55.355 1.35701 55.3826 1.37362L55.4038 1.38808L55.4068 1.39099Z" fill="#345BE4"/>
<path d="M45.0152 31.6413L53.9696 16.1294L52.7582 15.4375L45.0145 28.8708L40.2388 26.1408L39.0266 28.2165L45.0152 31.6413Z" fill="#345BE4"/>
</g>
<defs>
<clipPath id="clip0_1_413">
<rect width="72.8" height="91" fill="white"/>
</clipPath>
</defs>
</svg>
