<svg width="183" height="194" viewBox="0 0 183 194" fill="none" xmlns="http://www.w3.org/2000/svg">
<g clip-path="url(#clip0_1_642)">
<mask id="mask0_1_642" style="mask-type:luminance" maskUnits="userSpaceOnUse" x="0" y="0" width="183" height="194">
<path d="M183 0H0V194H183V0Z" fill="white"/>
</mask>
<g mask="url(#mask0_1_642)">
<mask id="mask1_1_642" style="mask-type:luminance" maskUnits="userSpaceOnUse" x="-1076" y="-129" width="1296" height="324">
<path d="M210 -128.737H-1066C-1071.52 -128.737 -1076 -124.26 -1076 -118.737V184.263C-1076 189.786 -1071.52 194.263 -1066 194.263H210C215.523 194.263 220 189.786 220 184.263V-118.737C220 -124.26 215.523 -128.737 210 -128.737Z" fill="white"/>
</mask>
<g mask="url(#mask1_1_642)">
<path d="M161.132 102.642L21.02 118.963L31.026 204.848H31.062C31.144 206.371 32.148 207.736 34.134 208.593L98.548 236.402C102.717 238.202 109.506 237.125 113.713 233.995L167.967 193.639C170.139 192.025 171.175 190.184 171.12 188.527H171.134L161.132 102.642Z" fill="url(#paint0_linear_1_642)"/>
<path d="M88.552 150.553L24.138 122.737C19.969 120.937 19.999 116.937 24.206 113.81L78.452 73.454C82.659 70.324 89.452 69.247 93.619 71.047L158.035 98.863C162.204 100.663 162.172 104.663 157.965 107.79L103.711 148.146C99.508 151.276 92.717 152.353 88.552 150.553Z" fill="url(#paint1_linear_1_642)"/>
<path d="M89.6659 133.051L53.612 117.48C51.279 116.474 51.298 114.236 53.651 112.486L84.017 89.8969C86.372 88.1449 90.174 87.5419 92.506 88.5509L128.56 104.115C130.893 105.121 130.874 107.359 128.522 109.115L98.156 131.702C95.8 133.454 91.9979 134.057 89.6659 133.051Z" fill="url(#paint2_linear_1_642)"/>
<path d="M157.671 105.194L103.415 145.55C99.2081 148.68 92.4151 149.757 88.2501 147.957L23.83 120.142C22.7061 119.711 21.7686 118.9 21.1801 117.85C20.7021 119.824 21.6611 121.67 24.1341 122.737L88.5481 150.553C92.7171 152.353 99.5081 151.276 103.715 148.146L157.971 107.79C160.843 105.652 161.72 103.125 160.691 101.155C160.183 102.811 159.115 104.239 157.671 105.194Z" fill="white"/>
<path d="M147.747 72.337L20.354 11.772L12.923 27.232L12.957 27.248C12.218 28.583 12.343 30.27 13.571 32.048L53.387 89.825C55.962 93.565 62.287 96.256 67.516 95.839L134.916 90.448C137.616 90.233 139.47 89.222 140.302 87.791H140.313L147.747 72.337Z" fill="url(#paint3_linear_1_642)"/>
<path d="M60.801 74.398L20.987 16.624C18.41 12.886 20.559 9.515 25.787 9.098L93.187 3.708C98.4139 3.289 104.741 5.982 107.316 9.72L147.133 67.494C149.708 71.234 147.561 74.603 142.333 75.022L74.933 80.412C69.705 80.829 63.378 78.138 60.801 74.398Z" fill="url(#paint4_linear_1_642)"/>
<path d="M143.455 72.661L76.055 78.052C70.828 78.469 64.503 75.776 61.926 72.038L22.108 14.263C21.3834 13.302 21.0193 12.1171 21.079 10.915C19.624 12.334 19.456 14.406 20.986 16.623L60.8 74.401C63.377 78.141 69.7 80.8321 74.929 80.4151L142.329 75.025C145.899 74.739 147.982 73.062 148.157 70.845C146.848 71.9777 145.186 72.6196 143.455 72.661Z" fill="url(#paint5_linear_1_642)"/>
<path opacity="0.7" d="M77.0849 65.1513L53.7999 31.3623C52.2919 29.1753 53.5479 27.2053 56.6059 26.9623L96.0259 23.8093C99.0819 23.5643 102.781 25.1403 104.289 27.3273L127.574 61.1143C129.081 63.3023 127.826 65.2713 124.768 65.5143L85.3479 68.6673C82.2919 68.9123 78.5929 67.3373 77.0849 65.1513Z" fill="url(#paint6_linear_1_642)"/>
<path d="M127.096 47.483L52.596 12.064L48.253 21.104L48.271 21.115C48.0531 21.5679 47.9711 22.0742 48.035 22.5728C48.0989 23.0713 48.3059 23.5406 48.631 23.924L71.916 57.711C73.423 59.899 77.123 61.472 80.179 61.229L119.599 58.076C120.21 58.0885 120.815 57.9538 121.364 57.6832C121.912 57.4125 122.386 57.0139 122.748 56.521H122.757L127.096 47.483Z" fill="url(#paint7_linear_1_642)"/>
<path d="M76.248 48.6929L52.963 14.8999C51.456 12.7149 52.711 10.7429 55.763 10.4999L95.183 7.34692C98.241 7.10192 101.94 8.67493 103.448 10.8629L126.733 44.6519C128.24 46.8369 126.982 48.8089 123.927 49.0519L84.507 52.2029C81.455 52.4499 77.756 50.8769 76.248 48.6929Z" fill="url(#paint8_linear_1_642)"/>
</g>
</g>
</g>
<defs>
<linearGradient id="paint0_linear_1_642" x1="284.17" y1="184.767" x2="425.277" y2="184.767" gradientUnits="userSpaceOnUse">
<stop stop-color="#5E98F7"/>
<stop offset="1" stop-color="#4670BA"/>
</linearGradient>
<linearGradient id="paint1_linear_1_642" x1="91.086" y1="70.1753" x2="91.086" y2="151.425" gradientUnits="userSpaceOnUse">
<stop stop-color="#5E98F7"/>
<stop offset="1" stop-color="#4670BA"/>
</linearGradient>
<linearGradient id="paint2_linear_1_642" x1="52.58" y1="115.529" x2="124.47" y2="89.3373" gradientUnits="userSpaceOnUse">
<stop stop-color="#7AACFF"/>
<stop offset="0.456" stop-color="#5386DC"/>
<stop offset="1" stop-color="#7CA4EB"/>
</linearGradient>
<linearGradient id="paint3_linear_1_642" x1="-777.747" y1="1266.01" x2="-636.55" y2="1266.01" gradientUnits="userSpaceOnUse">
<stop stop-color="#5E98F7"/>
<stop offset="1" stop-color="#4670BA"/>
</linearGradient>
<linearGradient id="paint4_linear_1_642" x1="-769.301" y1="1143.22" x2="-710.188" y2="1392.04" gradientUnits="userSpaceOnUse">
<stop stop-color="#5E98F7"/>
<stop offset="1" stop-color="#4670BA"/>
</linearGradient>
<linearGradient id="paint5_linear_1_642" x1="84.034" y1="10.915" x2="84.034" y2="80.4577" gradientUnits="userSpaceOnUse">
<stop stop-color="#5E98F7"/>
<stop offset="1" stop-color="#4670BA"/>
</linearGradient>
<linearGradient id="paint6_linear_1_642" x1="90.6867" y1="23.7842" x2="90.6867" y2="68.6924" gradientUnits="userSpaceOnUse">
<stop stop-color="#5E98F7"/>
<stop offset="1" stop-color="#4670BA"/>
</linearGradient>
<linearGradient id="paint7_linear_1_642" x1="-748.264" y1="1240.38" x2="-665.702" y2="1240.38" gradientUnits="userSpaceOnUse">
<stop stop-color="#5E98F7"/>
<stop offset="1" stop-color="#4670BA"/>
</linearGradient>
<linearGradient id="paint8_linear_1_642" x1="-743.452" y1="1168.56" x2="-708.917" y2="1314.05" gradientUnits="userSpaceOnUse">
<stop stop-color="#5E98F7"/>
<stop offset="1" stop-color="#4670BA"/>
</linearGradient>
<clipPath id="clip0_1_642">
<rect width="183" height="194" fill="white"/>
</clipPath>
</defs>
</svg>
